<?xml version="1.0"?>
<svg xmlns="http://www.w3.org/2000/svg" viewBox="0 0 512 512" width="512" height="512"><g id="_07-bed" data-name="07-bed"><g id="filled"><path d="M378.645,105.027a12,12,0,0,0,8.811,4.307c.124,0,.969.031,2.375.031a137.757,137.757,0,0,0,22.579-1.894c19.717-3.422,32.606-11.071,38.309-22.734,7.394-15.124,7.035-31.388-.937-42.446C446,37.047,437.563,29.029,421.291,28.967c-10.042-12.8-21.56-14.544-28.013-14.3-13.623.5-26.679,10.205-34.073,25.328-5.7,11.664-3.824,26.534,5.586,44.2A135.423,135.423,0,0,0,378.645,105.027Zm2.121-54.492c3.34-6.832,8.847-11.72,13.392-11.886.072,0,.144,0,.217,0,4.657,0,8.557,5.479,10.482,8.78a12,12,0,0,0,11.96,5.847c3.849-.515,10.716-.8,13.5,3.054,2.66,3.69,2.184,11.037-1.156,17.869-3.445,7.045-21.243,10.694-35.431,11.144C385.5,74.017,377.351,57.52,380.766,50.535Z"/><path d="M96.922,99.466q2.823,0,5.816-.169a135.56,135.56,0,0,0,24.728-3.832,12,12,0,0,0,7.607-6.19,135.573,135.573,0,0,0,8.779-23.433c5.168-19.333,3.633-34.242-4.561-44.314C128.665,8.471,113.75,1.973,100.369,4.569,94.023,5.8,83.2,10.1,76.32,24.84,60.486,28.583,54.08,38.3,51.584,44.266c-5.263,12.575-1.932,28.5,8.693,41.557C67.653,94.888,79.964,99.466,96.922,99.466Zm-23.2-45.935c1.837-4.387,8.592-5.66,12.456-6.029a12,12,0,0,0,10.326-8.4c1.146-3.708,3.766-10.064,8.435-10.97a7.392,7.392,0,0,1,1.414-.13c4.343,0,10.007,3.375,14.321,8.676,4.95,6.084.793,23.771-4.751,36.838-13.73,2.716-32.124,3.192-37.031-2.839C74.093,64.776,71.967,57.727,73.723,53.531Z"/><path d="M472.955,340.918,460,302.052V224a44.049,44.049,0,0,0-44-44H334.9c8.709-11.911,13.1-23.943,13.1-36,0-29.915-12.781-55.337-33.354-66.348C304.505,72.224,283.96,66.071,256,81.911c-27.959-15.84-48.506-9.686-58.646-4.259C176.781,88.663,164,114.085,164,144c0,12.057,4.4,24.089,13.1,36H96a44.049,44.049,0,0,0-44,44v78.052L39.045,340.918A44.075,44.075,0,0,0,4,384V496a12,12,0,0,0,12,12H64a12,12,0,0,0,11.384-8.2L88.649,460h334.7l13.265,39.8A12,12,0,0,0,448,508h48a12,12,0,0,0,12-12V384A44.075,44.075,0,0,0,472.955,340.918ZM72.649,316h33.434A35.991,35.991,0,0,0,136,332h64a35.991,35.991,0,0,0,29.917-16h52.166A35.991,35.991,0,0,0,312,332h64a35.991,35.991,0,0,0,29.917-16h33.434l8,24H64.649ZM212,296a12.013,12.013,0,0,1-12,12H136a12.013,12.013,0,0,1-12-12V264a12.013,12.013,0,0,1,12-12h64a12.013,12.013,0,0,1,12,12Zm176,0a12.013,12.013,0,0,1-12,12H312a12.013,12.013,0,0,1-12-12V264a12.013,12.013,0,0,1,12-12h64a12.013,12.013,0,0,1,12,12ZM208.679,98.812a26.279,26.279,0,0,1,12.58-3.071c10.147,0,20.352,5.089,28.085,10.243a12,12,0,0,0,13.312,0c10.983-7.321,26.952-14.51,40.665-7.172C315.883,105.535,324,123.272,324,144c0,27.368-46.066,55.84-68,66.721-21.941-10.885-68-39.354-68-66.721C188,123.272,196.117,105.535,208.679,98.812ZM76,224a20.023,20.023,0,0,1,20-20H200.72q3.916,3.155,8.244,6.289A264.446,264.446,0,0,0,251.1,234.953a12.008,12.008,0,0,0,9.808,0,264.446,264.446,0,0,0,42.132-24.664q4.33-3.135,8.244-6.289H416a20.023,20.023,0,0,1,20,20v68H412V264a36.04,36.04,0,0,0-36-36H312a36.04,36.04,0,0,0-36,36v28H236V264a36.04,36.04,0,0,0-36-36H136a36.04,36.04,0,0,0-36,36v28H76ZM484,484H456.649l-13.265-39.8A12,12,0,0,0,432,436H80a12,12,0,0,0-11.384,8.2L55.351,484H28V384a20.023,20.023,0,0,1,20-20H464a20.023,20.023,0,0,1,20,20Z"/></g></g></svg>
