<svg height="512" viewBox="0 0 64 64" width="512" xmlns="http://www.w3.org/2000/svg"><path d="m57 10h-37v-7a1 1 0 0 0 -1-1h-12a5.006 5.006 0 0 0 -5 5v46a5.006 5.006 0 0 0 5 5h45.1a5 5 0 0 0 9.9-1v-42a5.006 5.006 0 0 0 -5-5zm-50-6h11v6h-11a3 3 0 0 1 0-6zm53 53a3 3 0 0 1 -6 0v-38a4.945 4.945 0 0 0 6-.024zm-3-39a3 3 0 0 1 -3-3 1 1 0 0 0 -2 0v37h-15v2h15v2h-45a3 3 0 0 1 -3-3v-42a4.973 4.973 0 0 0 3 1h50a3 3 0 0 1 0 6z"/><path d="m47 14h-23a1 1 0 0 0 -1 1 5.006 5.006 0 0 1 -5 5v-5a1 1 0 0 0 -1-1h-6a1 1 0 0 0 -1 1v34a1 1 0 0 0 1 1h36a1 1 0 0 0 1-1v-34a1 1 0 0 0 -1-1zm-35 2h4v5a1 1 0 0 0 1 1h1a7.011 7.011 0 0 0 6.929-6h3.071v14h-3v-3a1 1 0 0 0 -1-1h-8a1 1 0 0 0 -1 1v3h-3zm11 12v2h-6v-2zm-11 8h4v8h-4zm34 12h-34v-2h17a1 1 0 0 0 1-1v-10a1 1 0 0 0 -1-1h-17v-2h24a1 1 0 0 0 1-1 5.006 5.006 0 0 1 5-5v5a1 1 0 0 0 1 1h3zm-28-4v-8h10v8zm28-14h-2v-5a1 1 0 0 0 -1-1h-1a7.011 7.011 0 0 0 -6.929 6h-5.071v-8h16zm0-10h-16v-4h16z"/><path d="m41 40a3 3 0 1 0 3 3 3 3 0 0 0 -3-3zm0 4a1 1 0 1 1 1-1 1 1 0 0 1 -1 1z"/><path d="m34 40h2v6h-2z"/><path d="m38 36h6v2h-6z"/><path d="m8 42h-2v11a1 1 0 0 0 1 1h7v-2h-6z"/><path d="m16 52h2v2h-2z"/></svg>