<?xml version="1.0" encoding="iso-8859-1"?>
<!-- Generator: Adobe Illustrator 17.1.0, SVG Export Plug-In . SVG Version: 6.00 Build 0)  -->
<!DOCTYPE svg PUBLIC "-//W3C//DTD SVG 1.1//EN" "http://www.w3.org/Graphics/SVG/1.1/DTD/svg11.dtd">
<svg version="1.1" id="Capa_1" xmlns="http://www.w3.org/2000/svg" xmlns:xlink="http://www.w3.org/1999/xlink" x="0px" y="0px"
	 viewBox="0 0 436.606 436.606" style="enable-background:new 0 0 436.606 436.606;" xml:space="preserve">
<path id="XMLID_182_" d="M304.66,202.049c0.433-2.471,0.776-4.97,1.031-7.481h-71.956v8.861c0,4.418-3.582,8-8,8s-8-3.582-8-8
	v-16.861c0-4.418,3.582-8,8-8h88.462c2.153,0,4.216,0.868,5.722,2.408c1.505,1.54,2.325,3.622,2.276,5.775
	c-0.139,6.049-0.736,12.124-1.775,18.058c-0.68,3.885-4.058,6.621-7.87,6.621c-0.459,0-0.923-0.039-1.39-0.121
	C306.809,210.547,303.898,206.401,304.66,202.049z M183.268,332.984c-13.136-1.682-26.005-5.106-38.251-10.178
	c-18.352-7.602-34.779-18.579-48.826-32.626c-14.048-14.049-25.025-30.478-32.628-48.829C56,223.094,52.165,203.766,52.165,183.902
	c0-19.862,3.835-39.19,11.397-57.449c7.603-18.352,18.58-34.779,32.628-48.827c14.046-14.047,30.474-25.023,48.826-32.627
	c18.259-7.563,37.587-11.397,57.449-11.397s39.191,3.835,57.45,11.397c18.354,7.604,34.781,18.58,48.827,32.627
	c14.049,14.048,25.026,30.477,32.627,48.827c7.563,18.259,11.397,37.587,11.397,57.449c0,6.197-0.383,12.437-1.139,18.544
	c-0.543,4.385,2.572,8.38,6.957,8.922c4.395,0.538,8.38-2.573,8.922-6.957c0.836-6.758,1.26-13.657,1.26-20.509
	c0-21.974-4.244-43.362-12.615-63.572c-8.409-20.302-20.553-38.476-36.095-54.019c-15.54-15.539-33.714-27.683-54.019-36.094
	c-20.21-8.372-41.599-12.616-63.573-12.616c-21.974,0-43.362,4.244-63.572,12.616c-20.304,8.411-38.479,20.555-54.018,36.095
	c-15.54,15.541-27.685,33.715-36.095,54.018c-8.372,20.21-12.616,41.599-12.616,63.572c0,21.975,4.244,43.363,12.616,63.572
	c8.41,20.303,20.555,38.478,36.095,54.02c15.541,15.54,33.715,27.685,54.018,36.095c13.556,5.613,27.802,9.404,42.341,11.267
	c0.346,0.044,0.688,0.065,1.026,0.065c3.966,0,7.408-2.947,7.926-6.985C190.747,337.554,187.649,333.546,183.268,332.984z
	 M361.236,276.055c10.339,10.34,16.032,24.052,16.032,38.61c0,14.558-5.693,28.27-16.03,38.611
	c-10.342,10.34-24.055,16.034-38.614,16.034h-27.147v13.408c0,12.339-10.038,22.378-22.376,22.378
	c-12.339,0-22.378-10.039-22.378-22.378v-100.32c0-12.339,10.039-22.378,22.378-22.378h49.523
	C337.183,260.021,350.896,265.715,361.236,276.055z M361.269,314.666c0-10.286-4.029-19.98-11.346-27.298
	c-7.318-7.317-17.014-11.348-27.299-11.348h-49.523c-3.517,0-6.378,2.861-6.378,6.378v100.32c0,3.517,2.861,6.378,6.378,6.378
	c3.516,0,6.376-2.861,6.376-6.378v-21.408c0-4.418,3.582-8,8-8h35.147c10.286,0,19.981-4.03,27.3-11.348
	C357.239,334.645,361.269,324.95,361.269,314.666z M272.161,15.393c22.268,9.226,42.197,22.542,59.235,39.582
	c17.04,17.039,30.356,36.968,39.581,59.233c1.276,3.081,4.255,4.94,7.394,4.94c1.021,0,2.058-0.196,3.059-0.611
	c4.082-1.69,6.021-6.37,4.329-10.452c-10.032-24.217-24.516-45.893-43.049-64.424c-18.53-18.532-40.206-33.017-64.426-43.05
	c-4.08-1.691-8.761,0.247-10.452,4.329S268.079,13.702,272.161,15.393z M132.773,352.413c-22.266-9.223-42.194-22.539-59.234-39.581
	c-17.042-17.042-30.359-36.971-39.581-59.234c-1.689-4.082-6.372-6.021-10.452-4.329c-4.082,1.69-6.021,6.37-4.329,10.452
	c10.029,24.214,24.513,45.89,43.049,64.425c18.533,18.535,40.209,33.019,64.425,43.049c1.002,0.415,2.038,0.611,3.059,0.611
	c3.139,0,6.118-1.86,7.394-4.94C138.793,358.783,136.855,354.104,132.773,352.413z M179.196,178.567c4.418,0,8,3.582,8,8v106.698
	c0,2.412-1.089,4.696-2.963,6.215c-1.438,1.165-3.22,1.785-5.037,1.785c-0.552,0-1.107-0.057-1.657-0.174
	c-9.724-2.059-19.188-5.346-28.13-9.769c-11.683-5.778-22.325-13.427-31.631-22.734c-11.243-11.241-19.998-24.314-26.021-38.856
	c-5.64-13.61-8.674-28.07-9.02-42.979c-0.05-2.153,0.771-4.236,2.276-5.776c1.505-1.541,3.567-2.409,5.722-2.409H179.196z
	 M171.196,194.567H99.239c1.012,10.03,3.457,19.768,7.3,29.041c5.215,12.592,12.803,23.919,22.553,33.667
	c8.071,8.072,17.294,14.702,27.412,19.706c4.746,2.348,9.661,4.326,14.692,5.915V194.567z M305.312,148.029H99.619
	c-2.688,0-5.196-1.35-6.677-3.593s-1.736-5.08-0.68-7.551c2.253-5.271,4.918-10.438,7.922-15.355
	c4.92-8.054,10.84-15.561,17.595-22.314c11.24-11.242,24.313-19.998,38.857-26.022c14.505-6.009,29.924-9.055,45.829-9.055
	c15.907,0,31.326,3.046,45.83,9.055c14.541,6.023,27.615,14.779,38.859,26.022c6.751,6.75,12.67,14.258,17.592,22.313
	c3.002,4.914,5.668,10.081,7.921,15.357c1.056,2.472,0.801,5.308-0.681,7.551C310.507,146.68,307.999,148.029,305.312,148.029z
	 M292.376,132.029c-0.419-0.725-0.847-1.444-1.282-2.158c-4.264-6.978-9.395-13.484-15.252-19.341
	c-9.752-9.751-21.079-17.34-33.669-22.556c-12.553-5.199-25.912-7.836-39.707-7.836c-13.794,0-27.152,2.637-39.706,7.836
	c-12.592,5.217-23.919,12.805-33.667,22.555c-5.861,5.86-10.993,12.368-15.254,19.342c-0.437,0.714-0.864,1.434-1.283,2.158H292.376
	z M340.905,296.384c4.907,4.908,7.608,11.4,7.608,18.281c0,6.883-2.702,13.375-7.607,18.281c-4.909,4.906-11.401,7.608-18.282,7.608
	h-35.147c-4.418,0-8-3.582-8-8v-35.778c0-4.418,3.582-8,8-8h35.147C329.506,288.776,335.998,291.478,340.905,296.384z
	 M332.514,314.666c0-2.609-1.038-5.084-2.922-6.969c-1.884-1.883-4.358-2.921-6.968-2.921h-27.147v19.778h27.147
	c2.608,0,5.083-1.038,6.969-2.924C331.477,319.748,332.514,317.274,332.514,314.666z M418.041,259.517v146.084
	c0,17.096-13.908,31.005-31.003,31.005H240.952c-17.096,0-31.005-13.909-31.005-31.005V259.517
	c0-17.096,13.909-31.005,31.005-31.005h146.086C404.133,228.512,418.041,242.421,418.041,259.517z M402.041,259.517
	c0-8.273-6.73-15.005-15.003-15.005H240.952c-8.273,0-15.005,6.731-15.005,15.005v146.084c0,8.273,6.731,15.005,15.005,15.005
	h146.086c8.272,0,15.003-6.731,15.003-15.005V259.517z"/>
<g>
</g>
<g>
</g>
<g>
</g>
<g>
</g>
<g>
</g>
<g>
</g>
<g>
</g>
<g>
</g>
<g>
</g>
<g>
</g>
<g>
</g>
<g>
</g>
<g>
</g>
<g>
</g>
<g>
</g>
</svg>
