<svg id="Capa_1" enable-background="new 0 0 512 512" height="512" viewBox="0 0 512 512" width="512" xmlns="http://www.w3.org/2000/svg"><path d="m40 302c22.056 0 40-17.944 40-40s-17.944-40-40-40-40 17.944-40 40 17.944 40 40 40zm0-60c11.028 0 20 8.972 20 20s-8.972 20-20 20-20-8.972-20-20 8.972-20 20-20z"/><path d="m322.571 48.37c-1.17-3.603-4.275-6.234-8.021-6.799l-34.157-5.146-15.449-30.897c-1.694-3.388-5.156-5.528-8.944-5.528s-7.25 2.14-8.944 5.528l-15.449 30.896-34.157 5.146c-3.746.564-6.851 3.196-8.021 6.799s-.205 7.557 2.494 10.215l24.61 24.236-5.668 34.078c-.622 3.736.921 7.504 3.986 9.73 3.064 2.226 7.124 2.532 10.486.785l30.663-15.915 30.663 15.917c3.361 1.746 7.422 1.441 10.486-.785 3.064-2.227 4.607-5.994 3.986-9.73l-5.668-34.078 24.61-24.236c2.698-2.659 3.664-6.613 2.494-10.216zm-44.838 23.845c-2.32 2.284-3.382 5.555-2.848 8.766l3.238 19.468-17.516-9.093c-1.444-.75-3.026-1.125-4.607-1.125s-3.163.375-4.607 1.125l-17.516 9.093 3.238-19.468c.534-3.211-.528-6.481-2.848-8.766l-14.06-13.847 19.513-2.939c3.218-.485 5.999-2.506 7.455-5.417l8.825-17.652 8.826 17.651c1.456 2.911 4.236 4.932 7.455 5.417l19.513 2.939z"/><circle cx="256" cy="502" r="10"/><path d="m482 312h-20c-16.542 0-30 13.458-30 30v90c-4.389 0-8.634.952-12.496 2.72l-80.174-138.72h42.67c5.523 0 10-4.478 10-10v-40c0-16.542-13.458-30-30-30v-30c0-16.542-13.458-30-30-30h-152c-16.542 0-30 13.458-30 30v30c-16.542 0-30 13.458-30 30v40c0 5.522 4.477 10 10 10h42.67l-80.175 138.722c-3.864-1.77-8.107-2.722-12.495-2.722v-90c0-16.542-13.458-30-30-30h-20c-16.542 0-30 13.458-30 30v160c0 5.522 4.477 10 10 10h201c5.523 0 10-4.478 10-10s-4.477-10-10-10h-101v-30c0-4.411-.993-8.75-2.834-12.694l88.604-153.306h120.46l88.605 153.308c-1.844 3.949-2.835 8.285-2.835 12.692v30h-101c-5.523 0-10 4.478-10 10s4.477 10 10 10h201c5.523 0 10-4.478 10-10v-160c0-16.542-13.458-30-30-30zm-452 20h20c5.514 0 10 4.486 10 10v90h-40v-90c0-5.514 4.486-10 10-10zm-10 160v-40h60c5.53 0 10 4.495 10 10v30zm150-306c0-5.514 4.486-10 10-10h152c5.514 0 10 4.486 10 10v30h-172zm-30 60c0-5.514 4.486-10 10-10h212c5.514 0 10 4.486 10 10v30h-232zm312 96c0-5.514 4.486-10 10-10h20c5.514 0 10 4.486 10 10v90h-40zm-30 150v-30c0-5.444 4.407-10 10-10h60v40z"/><path d="m472 222c-22.056 0-40 17.944-40 40s17.944 40 40 40 40-17.944 40-40-17.944-40-40-40zm0 60c-11.028 0-20-8.972-20-20s8.972-20 20-20 20 8.972 20 20-8.972 20-20 20z"/></svg>